<svg width="24" height="24" viewBox="0 0 26 28" fill="none" xmlns="http://www.w3.org/2000/svg">
<path fill-rule="evenodd" clip-rule="evenodd" d="M11.25 1.70365C11.25 1.70365 2.5 1.70365 2.5 17.4667L0.75 19.2182C0.75 23.9251 25.25 24.0345 25.25 19.2182L23.5 17.4667C23.5 1.70365 14.75 1.70365 14.75 1.70365C14.75 -0.540458 11.25 -0.595146 11.25 1.70365ZM6 18.6489C6 18.6489 6 5.20643 13 5.20643C20 5.20643 20 18.6489 20 18.6489C14.75 19.218 11.25 19.218 6 18.6489Z" fill="#323546"/>
<path d="M7.94141 24.051C9.60938 29.3437 16.3906 29.2888 18.0586 24.051C14.75 24.4725 11.25 24.4725 7.94141 24.051Z" fill="#323546"/>
</svg>
