<svg width="24" height="22" viewBox="0 0 24 22" fill="none" xmlns="http://www.w3.org/2000/svg">
<path d="M14.7935 17.5063C16.7402 17.5063 18.3164 15.9296 18.3164 13.9834C18.3164 12.0373 16.7402 10.4606 14.7935 10.4606C12.8467 10.4606 11.2705 12.0373 11.2705 13.9834C11.2705 15.9296 12.8467 17.5063 14.7935 17.5063Z" fill="#F15C45"/>
<path fill-rule="evenodd" clip-rule="evenodd" d="M21.2681 4.91208H19.7241V2.79282C19.7241 1.539 18.6943 0.509766 17.4404 0.509766H11.3218C10.0679 0.509766 9.03809 1.539 9.03809 2.79282V4.91208H2.68506C1.20264 4.91208 0 6.11444 0 7.59283V19.0454C0 20.5238 1.20264 21.7308 2.68506 21.7308H21.2725C22.7505 21.7308 23.9575 20.5285 23.9575 19.0454V7.59283C23.9531 6.11444 22.7505 4.91208 21.2681 4.91208ZM2.82129 9.05246C2.82129 9.8291 3.45264 10.4606 4.229 10.4606C5.00537 10.4606 5.63818 9.8291 5.63818 9.05246C5.63818 8.27591 5.00537 7.64429 4.229 7.64429C3.45264 7.64429 2.82129 8.27591 2.82129 9.05246ZM14.7935 20.3227C11.2939 20.3227 8.45361 17.4829 8.45361 13.9835C8.45361 10.4841 11.2939 7.64429 14.7935 7.64429C18.2915 7.64429 21.1318 10.4841 21.1318 13.9835C21.1318 17.4829 18.2974 20.3227 14.7935 20.3227Z" fill="#F15C45"/>
<path d="M8.45361 2.87695C8.45361 2.14719 7.85449 1.54834 7.125 1.54834H3.55078C2.82129 1.54834 2.22217 2.14719 2.22217 2.87695V3.9343H8.45361V2.87695Z" fill="#F15C45"/>
</svg>
