<svg width="122" height="30" viewBox="0 0 122 40" fill="none" xmlns="http://www.w3.org/2000/svg">
<circle cx="102" cy="20" r="19.5" fill="white" stroke="#CFCFCF"/>
<path d="M104.793 26.5063C106.74 26.5063 108.316 24.9296 108.316 22.9834C108.316 21.0373 106.74 19.4606 104.793 19.4606C102.847 19.4606 101.271 21.0373 101.271 22.9834C101.271 24.9296 102.847 26.5063 104.793 26.5063Z" fill="#F15C45"/>
<path fill-rule="evenodd" clip-rule="evenodd" d="M111.268 13.9121H109.724V11.7928C109.724 10.539 108.694 9.50977 107.44 9.50977H101.322C100.068 9.50977 99.0381 10.539 99.0381 11.7928V13.9121H92.6851C91.2026 13.9121 90 15.1144 90 16.5928V28.0454C90 29.5238 91.2026 30.7308 92.6851 30.7308H111.272C112.75 30.7308 113.958 29.5285 113.958 28.0454V16.5928C113.953 15.1144 112.75 13.9121 111.268 13.9121ZM92.8213 18.0525C92.8213 18.8291 93.4526 19.4606 94.229 19.4606C95.0054 19.4606 95.6382 18.8291 95.6382 18.0525C95.6382 17.2759 95.0054 16.6443 94.229 16.6443C93.4526 16.6443 92.8213 17.2759 92.8213 18.0525ZM104.793 29.3227C101.294 29.3227 98.4536 26.4829 98.4536 22.9835C98.4536 19.4841 101.294 16.6443 104.793 16.6443C108.292 16.6443 111.132 19.4841 111.132 22.9835C111.132 26.4829 108.297 29.3227 104.793 29.3227Z" fill="#F15C45"/>
<path d="M98.4536 11.877C98.4536 11.1472 97.8545 10.5483 97.125 10.5483H93.5508C92.8213 10.5483 92.2222 11.1472 92.2222 11.877V12.9343H98.4536V11.877Z" fill="#F15C45"/>
</svg>
