<svg width="24" height="24" viewBox="0 0 28 28" fill="none" xmlns="http://www.w3.org/2000/svg">
<path d="M24.6612 15.3557C24.787 14.5084 24.6339 13.2073 24.5573 12.6169L27.2094 10.8567C27.9421 10.3483 28.1718 9.37524 27.7507 8.59352L25.7986 5.14955C25.3666 4.34596 24.3933 4.0125 23.5566 4.37329L20.7569 5.65795C20.0515 5.08942 18.8813 4.46076 18.0283 4.12729L17.6619 1.50879C17.5416 0.64506 16.798 0 15.9231 0H12.0953C11.2149 0 10.4767 0.650527 10.3564 1.51425L10.001 4.07809C8.9894 4.49902 7.98325 5.12222 7.25051 5.66888L4.51642 4.34596C3.7126 4.02889 2.85409 4.09996 2.41664 4.84889L0.240301 8.18352C-0.191685 8.91605 -0.0276398 9.85084 0.623074 10.403L3.37357 12.6005C3.28608 13.2401 3.20953 14.5248 3.34076 15.3831L0.748842 17.1652C0.0106375 17.6845 -0.213558 18.6794 0.229365 19.4611L2.35649 22.9871C2.80488 23.7688 3.77822 24.0859 4.60391 23.7196L7.25051 22.3147C7.97232 22.8723 9.13704 23.583 9.99554 23.9164L10.3072 26.442C10.4111 27.3221 11.1548 27.9836 12.0461 27.9891L15.9887 28C16.88 28 17.6291 27.3385 17.733 26.4584L18.0228 23.8946C19.0454 23.4846 20.057 22.9434 20.7788 22.3749L23.6605 23.5611C24.5026 23.9547 25.5088 23.6267 25.9517 22.8122L27.789 19.5267C28.2046 18.756 27.9913 17.7993 27.2805 17.2854L24.6612 15.3557ZM14.0147 18.7724C8.34415 18.7724 7.97778 10.0258 14.0147 10.0258C19.9586 10.0258 19.6852 18.7724 14.0147 18.7724Z" fill="#323546"/>
</svg>
