<svg width="21" height="18" viewBox="0 0 21 18" fill="none" xmlns="http://www.w3.org/2000/svg">
<path d="M17.5035 0.251953L2.50354 0.248047C1.25354 0.248047 0.00354004 1.50195 0.00354004 2.74805V15.252C0.00354004 16.502 1.25354 17.752 2.50354 17.752H17.5035C18.7535 17.752 20.0035 16.502 20.0035 15.252V2.74805C20.0035 1.50195 18.7535 0.251953 17.5035 0.251953ZM17.5035 15.252H2.50354V6.50195H17.5035V15.252ZM17.5035 4.00195H2.50354V2.74805H17.5035V4.00195Z" fill="white"/>
<path d="M11.8785 10.252H14.3785C16.8278 10.252 16.8512 14.002 14.3785 14.002H11.8785C9.40588 14.002 9.36682 10.252 11.8785 10.252Z" fill="white"/>
</svg>
