<svg width="26" height="26" viewBox="0 0 26 26" fill="none" xmlns="http://www.w3.org/2000/svg">
<path d="M24.5629 0H1.43711C0.639844 0 0 0.639844 0 1.43711V24.568C0 25.3602 0.639844 26 1.43711 26H13.8887V15.9301H10.5016V12.0047H13.8887V9.11016C13.8887 5.75352 15.9402 3.92539 18.9363 3.92539C20.3734 3.92539 21.6023 4.03203 21.9629 4.07773V7.58672H19.8859C18.2559 7.58672 17.941 8.35859 17.941 9.49609V11.9996H21.8258L21.318 15.925H17.9359V26H24.5629C25.3551 26 26 25.3551 26 24.5629V1.43711C26 0.639844 25.3551 0 24.5629 0Z" fill="#323546"/>
</svg>
