<svg width="35" height="35" viewBox="0 0 44 47" fill="none" xmlns="http://www.w3.org/2000/svg">
<path fill-rule="evenodd" clip-rule="evenodd" d="M19.5 8C8.77405 8 0 16.7749 0 27.5C0 38.2251 8.77405 47 19.5 47C30.226 47 39 38.2251 39 27.5C39 16.7749 30.226 8 19.5 8ZM24.375 37.25C25.3486 37.9812 26.3245 43.1001 26.3245 43.1001C24.1298 44.075 20.7188 45.0195 17.0625 44.3188C17.0625 44.3188 14.625 43.1001 14.625 39.6875C14.625 38.945 14.6821 38.2834 14.7345 37.6798C14.9249 35.5095 15.0487 34.0915 12.1875 32.375C9.93091 31.0216 7.95282 30.6887 6.59839 30.4604C5.75574 30.3188 5.15588 30.2176 4.875 29.9375C4.14423 29.2063 3.65625 27.0125 4.875 25.0625H7.3125V20.1875H12.1875C13.649 19.2126 17.0625 10.6813 17.0625 10.6813C18.524 10.1938 21.0829 10.1557 21.9375 10.6813C17.1292 16.4706 19.7975 15.5995 22.197 14.8157C23.7775 14.2992 25.2438 13.8206 24.375 15.3125C23.5681 16.7897 21.4305 18.5626 19.6738 20.0201L19.6523 20.0374C18.2313 21.2181 17.0625 22.1892 17.0625 22.625C17.0625 23.6001 18.7692 25.0625 19.5 25.0625C19.838 25.0625 20.7021 24.0134 21.6281 22.8885L21.6447 22.8696C22.7111 21.5751 23.8537 20.1875 24.375 20.1875C25.3486 20.1875 27.5433 24.3313 26.8125 25.0625C26.4959 25.3783 24.8177 25.6487 22.9325 25.952C20.4521 26.3512 17.6147 26.8076 17.0625 27.5C16.0865 28.7188 15.8438 33.5938 17.0625 34.8125C17.7647 35.515 19.7642 35.9746 21.5162 36.3779C22.804 36.6742 23.9608 36.9403 24.375 37.25ZM34.125 29.9375C34.3678 32.1312 32.4183 38.7124 32.4183 38.7124C38.5811 31.5294 36.3197 22.8687 35.8317 22.625C34.3678 22.1375 29.738 22.1375 29.25 22.625V25.0625C29.519 25.3304 30.007 25.23 30.514 25.1259C30.9305 25.0406 31.359 24.9527 31.6875 25.0625C32.4183 25.3062 33.8822 27.7437 34.125 29.9375Z" fill="#323546"/>
<path fill-rule="evenodd" clip-rule="evenodd" d="M25.25 6.43277C25.25 2.88657 28.272 0 31.9868 0C35.7017 0 38.7236 2.88657 38.7236 6.43744C38.7236 8.38834 34.335 19.8128 32.9932 23.2655C32.8291 23.6819 32.4307 23.9579 31.9868 23.9579C31.543 23.9579 31.1445 23.6819 30.9805 23.2655C30.0269 20.8094 25.25 8.45847 25.25 6.43277ZM28.2441 6.73682C28.2441 8.80463 29.9185 10.4795 31.9868 10.4795C34.0552 10.4795 35.7295 8.80463 35.7295 6.73682C35.7295 4.66901 34.0552 2.99414 31.9868 2.99414C29.9185 2.99414 28.2441 4.66901 28.2441 6.73682Z" fill="#F15C45"/>
</svg>
