<svg width="23" height="26" viewBox="0 0 26 28" fill="none" xmlns="http://www.w3.org/2000/svg">
<path d="M24.2273 11.2219L14.225 1.22504C13.5414 0.541443 12.4586 0.541443 11.775 1.22504L1.77266 11.2274C1.11641 11.8836 0.75 12.775 0.75 13.7047V28H11.25V19.25C11.25 16.9149 14.75 16.9149 14.75 19.25V28H25.25V13.6993C25.25 12.7696 24.8836 11.8782 24.2273 11.2219ZM21.75 24.5H18.25V19.25C18.25 12.25 7.75 12.25 7.75 19.25C7.75 20.4149 7.75 23.3352 7.75 24.5H4.25V14L13 5.25004L21.75 14V24.5Z" fill="#323546"/>
</svg>
