<svg width="19" height="19" viewBox="0 0 21 20" fill="none" xmlns="http://www.w3.org/2000/svg">
<path d="M7.25007 2.5L18.5001 2.5L18.5001 17.5L7.25007 17.5C5.59382 17.5 5.63288 20 7.25007 20L18.5001 20C19.879 20 21.0001 18.8789 21.0001 17.5L21.0001 2.5C21.0001 1.12109 19.879 0 18.5001 0L7.25007 0C5.5821 0 5.60163 2.5 7.25007 2.5Z" fill="white"/>
<path d="M1.35707 9.10666L3.90395 6.59494C5.05239 5.53634 6.52895 7.14572 5.65395 8.10275L5.00551 8.75119L13.5133 8.75509C15.1813 8.75509 15.1422 11.2395 13.5133 11.2395L5.00551 11.2356L5.65395 11.884C6.58364 12.9504 4.95082 14.4309 3.90395 13.3918L1.35707 10.8801C1.11879 10.6496 0.685199 9.89181 1.35707 9.10666Z" fill="white"/>
</svg>
