<svg width="26" height="26" viewBox="0 0 26 26" fill="none" xmlns="http://www.w3.org/2000/svg">
<path d="M19.5 4.875C18.6012 4.875 17.875 5.60117 17.875 6.5C17.875 7.39883 18.6012 8.125 19.5 8.125C20.3988 8.125 21.125 7.39883 21.125 6.5C21.125 5.60117 20.3988 4.875 19.5 4.875Z" fill="#323546"/>
<path fill-rule="evenodd" clip-rule="evenodd" d="M6.5 13C6.72344 21.516 19.3223 21.5617 19.5 13C19.1801 4.2402 6.81992 4.48395 6.5 13ZM16.25 13C16.25 17.3773 9.75 17.4738 9.75 13C9.75 8.81559 16.25 8.62262 16.25 13Z" fill="#323546"/>
<path fill-rule="evenodd" clip-rule="evenodd" d="M17.875 0H8.125C3.65625 0 0 3.65625 0 8.125V17.875C0 22.3438 3.65625 26 8.125 26H17.875C22.3438 26 26 22.3438 26 17.875V8.125C26 3.65625 22.3438 0 17.875 0ZM17.875 3.25C20.5613 3.25 22.75 5.43867 22.75 8.125V17.875C22.75 20.5613 20.5613 22.75 17.875 22.75H8.125C5.43867 22.75 3.25 20.5613 3.25 17.875V8.125C3.25 5.43867 5.43867 3.25 8.125 3.25H17.875Z" fill="#323546"/>
</svg>
