<svg width="21" height="18" viewBox="0 0 21 18" fill="none" xmlns="http://www.w3.org/2000/svg">
<path fill-rule="evenodd" clip-rule="evenodd" d="M3.7572 7.75107H10.5162C11.6173 7.75107 12.5157 8.64874 12.5121 9.74936V15.7479C12.5121 16.8523 11.6136 17.75 10.5114 17.75H1.75403C0.651733 17.75 0.00354004 16.8485 0.00354004 15.7479V9.74936C0.00354004 8.64874 0.651733 7.75107 1.75403 7.75107H2.5072V4.00061C2.5072 1.92816 4.18689 0.25 6.26208 0.25C8.33606 0.25 10.0157 1.92816 10.0157 4.00061V5.22986H8.76575V4.00061C8.76575 2.61893 7.64514 1.49893 6.26208 1.49893C4.87903 1.49893 3.7572 2.62289 3.7572 4.00061V7.75107ZM5.0072 15.2523H7.51086V11.5017H5.0072V15.2523Z" fill="white"/>
<path d="M13.7657 4.00061V5.28845C15.5236 6.9277 15.4845 10.7953 13.7657 12.7506V13.9995C17.2069 13.9605 17.1678 4.03967 13.7657 4.00061Z" fill="white"/>
<path d="M16.1913 2.78677V1.49893C21.2731 1.49893 21.2731 16.5012 16.1913 16.4973V15.2483C19.5153 13.6872 19.4762 4.23087 16.1913 2.78677Z" fill="white"/>
</svg>
