<svg width="24" height="24" viewBox="0 0 28 29" fill="none" xmlns="http://www.w3.org/2000/svg">
<path d="M24.5 3.5067H26.25C27.2122 3.5067 27.9949 4.29422 28 5.2567V17.5067C28 18.4746 27.2173 19.2567 26.25 19.2567H22.75V10.441C22.75 8.5434 21.2136 7.0067 19.3149 7.0067H7V5.2567C7 4.28867 7.78271 3.5067 8.75 3.5067H18.5391L21.5144 0.520787C22.7773 -0.676891 24.5171 0.384068 24.5 1.7567V3.5067Z" fill="#323546"/>
<path d="M6.16943 14.0067H14.9194C16.1431 14.0067 15.9688 15.7567 14.9194 15.7567H6.16943C4.94409 15.7567 4.94409 14.0067 6.16943 14.0067Z" fill="#323546"/>
<path d="M11.4194 17.5067H6.16943C4.94409 17.5067 4.94409 19.2567 6.16943 19.2567H11.4194C12.4688 19.2567 12.6431 17.5067 11.4194 17.5067Z" fill="#323546"/>
<path fill-rule="evenodd" clip-rule="evenodd" d="M19.25 8.7567H1.75C0.782715 8.7567 0 9.53878 0 10.5067V22.7567C0 23.7246 0.782715 24.5067 1.75 24.5067H3.5V26.2567C3.52222 27.9082 5.479 28.5371 6.4856 27.4926L9.46094 24.5067H19.25C20.2173 24.5067 21 23.7246 21 22.7567V10.5067C21 9.53878 20.2122 8.7567 19.25 8.7567ZM19.25 22.7567H1.75V10.5067H19.25V22.7567Z" fill="#323546"/>
</svg>
