<svg width="20" height="20" viewBox="0 0 20 20" fill="none" xmlns="http://www.w3.org/2000/svg">
<path d="M9.2395 11.2632C9.22363 11.1891 9.21265 11.115 9.2041 11.041C9.19678 10.9669 9.19312 10.8889 9.19312 10.807C9.19312 10.5107 9.25903 10.2261 9.39575 9.95323C9.53125 9.68033 9.7583 9.42688 10.0818 9.18907L10.6189 8.78754C10.9387 8.54973 11.1023 8.25729 11.1023 7.90642C11.1023 7.78168 11.0791 7.65694 11.0364 7.5322C10.9937 7.40738 10.9241 7.30217 10.8301 7.20856C10.7361 7.11502 10.6189 7.04094 10.4749 6.98639C10.3308 6.93176 10.1672 6.90056 9.98047 6.90056C9.77783 6.90056 9.60571 6.93954 9.46533 7.01363C9.32495 7.08771 9.2041 7.18132 9.11011 7.29828C9.01733 7.41524 8.94653 7.54776 8.90381 7.69981C8.86108 7.85187 8.83789 8.00781 8.83789 8.16376C8.83789 8.31192 8.85376 8.43277 8.88062 8.51852L7.46582 8.46397C7.44263 8.38211 7.42676 8.30017 7.4231 8.21442C7.41455 8.12866 7.41089 8.0468 7.41089 7.96494C7.41089 7.66861 7.46582 7.37625 7.57812 7.0916C7.69165 6.80702 7.85522 6.55365 8.07373 6.33141C8.29224 6.11305 8.55713 5.93376 8.87695 5.80116C9.19678 5.66864 9.56299 5.59845 9.98413 5.59845C10.4163 5.59845 10.7983 5.66086 11.1304 5.78949C11.4575 5.91423 11.7346 6.08185 11.9604 6.28464C12.1826 6.48735 12.3547 6.72516 12.467 6.99417C12.5806 7.26318 12.6355 7.53609 12.6355 7.82066C12.6355 8.26515 12.5342 8.64716 12.3315 8.96294C12.1277 9.27879 11.8591 9.55559 11.5234 9.7934L11.0645 10.117C10.8691 10.2573 10.7214 10.4172 10.6152 10.5926C10.5103 10.7681 10.4602 10.9708 10.4602 11.2008V11.2671L9.2395 11.2632Z" fill="white"/>
<path d="M9.2395 12.2496C9.06738 12.425 8.98193 12.6356 8.98193 12.8812C8.98193 13.1268 9.06738 13.3334 9.2395 13.5049C9.4104 13.6765 9.61792 13.7623 9.86694 13.7623C10.116 13.7623 10.3271 13.6765 10.5029 13.5049C10.6775 13.3334 10.7678 13.1268 10.7678 12.8812C10.7678 12.6356 10.6775 12.425 10.5029 12.2496C10.3271 12.0741 10.1123 11.9884 9.86694 11.9884C9.62158 11.9884 9.4104 12.0741 9.2395 12.2496Z" fill="white"/>
<path fill-rule="evenodd" clip-rule="evenodd" d="M17.0569 2.9435C17.9724 3.85971 18.6938 4.92401 19.1968 6.11313C19.7156 7.34505 19.9841 8.64723 19.9841 9.99611C19.9841 11.3451 19.7229 12.6511 19.2004 13.8831C18.6975 15.0722 17.981 16.1404 17.0642 17.0566C16.1487 17.9727 15.0806 18.6901 13.8904 19.193C12.6587 19.7115 11.3525 19.9767 10.0037 19.9767C8.65479 19.9767 7.34863 19.7154 6.11694 19.193C4.92798 18.6901 3.85986 17.9727 2.94312 17.0566C2.02759 16.1404 1.30615 15.0761 0.803223 13.8869C0.284424 12.655 0.0195312 11.3451 0.0195312 10C0.0195312 8.65501 0.284424 7.34505 0.806885 6.11702C1.30981 4.9279 2.02759 3.85971 2.94312 2.9435C3.85986 2.02736 4.92432 1.30608 6.11328 0.803146C7.34497 0.284653 8.65479 0.0195312 10 0.0195312C11.3452 0.0195312 12.655 0.284653 13.8831 0.807037C15.072 1.30997 16.1401 2.02736 17.0569 2.9435ZM2.51465 10C2.51465 14.1326 5.86792 17.4854 10 17.4854C14.1321 17.4854 17.4854 14.1326 17.4854 10C17.4854 5.86746 14.1321 2.51465 10 2.51465C5.86792 2.51465 2.51465 5.86746 2.51465 10Z" fill="white"/>
</svg>
