<svg width="20" height="20" viewBox="0 0 20 20" fill="none" xmlns="http://www.w3.org/2000/svg">
<path d="M18.8945 0H1.10547C0.492187 0 0 0.492187 0 1.10547V18.8984C0 19.5078 0.492187 20 1.10547 20H10.6836V12.2539H8.07812V9.23438H10.6836V7.00781C10.6836 4.42578 12.2617 3.01953 14.5664 3.01953C15.6719 3.01953 16.6172 3.10156 16.8945 3.13672V5.83594H15.2969C14.043 5.83594 13.8008 6.42969 13.8008 7.30469V9.23047H16.7891L16.3984 12.25H13.7969V20H18.8945C19.5039 20 20 19.5039 20 18.8945V1.10547C20 0.492187 19.5039 0 18.8945 0Z" fill="#323546"/>
</svg>
