<svg width="30" height="30" viewBox="0 0 30 30" fill="none" xmlns="http://www.w3.org/2000/svg">
<path d="M16.875 3.75C16.875 4.78706 16.0364 5.625 15 5.625C13.9636 5.625 13.125 4.78706 13.125 3.75V1.875C13.125 0.837936 13.9636 0 15 0C16.0364 0 16.875 0.837936 16.875 1.875V3.75Z" fill="#CFCFCF"/>
<path fill-rule="evenodd" clip-rule="evenodd" d="M7.5 15C7.5 10.8575 10.8582 7.5 15 7.5C19.1418 7.5 22.5 10.8575 22.5 15C22.5 19.1425 19.1418 22.5 15 22.5C10.8582 22.5 7.5 19.1425 7.5 15ZM15 18.75C16.0016 18.75 16.9446 18.3575 17.655 17.6543C18.3582 16.9453 18.75 16.0019 18.75 15C18.75 13.9981 18.3636 13.0488 17.655 12.3457C16.9446 11.6425 16.0016 11.25 15 11.25C13.9984 11.25 13.0554 11.6367 12.345 12.3457C11.6418 13.0547 11.25 13.9981 11.25 15C11.25 16.0019 11.6418 16.9453 12.345 17.6543C13.0554 18.3575 13.9984 18.75 15 18.75Z" fill="#CFCFCF"/>
<path d="M28.125 13.125H26.25C25.2136 13.125 24.375 13.9629 24.375 15C24.375 16.0371 25.2136 16.875 26.25 16.875H28.125C29.1614 16.875 30 16.0371 30 15C30 13.9629 29.1614 13.125 28.125 13.125Z" fill="#CFCFCF"/>
<path d="M3.75 13.125C4.78638 13.125 5.625 13.9629 5.625 15C5.625 16.0371 4.78638 16.875 3.75 16.875H1.875C0.838623 16.875 0 16.0371 0 15C0 13.9629 0.838623 13.125 1.875 13.125H3.75Z" fill="#CFCFCF"/>
<path d="M15 24.375C13.9636 24.375 13.125 25.2129 13.125 26.25V28.125C13.125 29.1621 13.9636 30 15 30C16.0364 30 16.875 29.1621 16.875 28.125V26.25C16.875 25.2129 16.0364 24.375 15 24.375Z" fill="#CFCFCF"/>
<path d="M24.2816 21.6269C23.5492 20.8945 22.359 20.8945 21.6266 21.6269C20.8942 22.3594 20.8942 23.5489 21.6266 24.2813L22.9504 25.6055C23.6829 26.3379 24.873 26.3379 25.6055 25.6055C26.3379 24.873 26.3379 23.6835 25.6055 22.9511L24.2816 21.6269Z" fill="#CFCFCF"/>
<path d="M8.37341 8.37307C7.64099 9.10549 6.45081 9.10549 5.71838 8.37307L4.39453 7.04887C3.66211 6.31645 3.66211 5.12695 4.39453 4.39453C5.12695 3.66211 6.30981 3.66211 7.04224 4.39453L8.37341 5.71873C9.10583 6.45115 9.10583 7.64065 8.37341 8.37307Z" fill="#CFCFCF"/>
<path d="M8.37341 21.6269C7.64099 20.8945 6.45081 20.8945 5.71838 21.6269L4.39453 22.957C3.66211 23.6894 3.66211 24.8789 4.39453 25.6113C5.12695 26.3437 6.31714 26.3437 7.04956 25.6113L8.37341 24.2871C9.10583 23.5489 9.10583 22.3594 8.37341 21.6269Z" fill="#CFCFCF"/>
<path d="M24.2816 8.37307C23.5492 9.10549 22.359 9.10549 21.6266 8.37307C20.8942 7.64065 20.8942 6.45115 21.6266 5.71873L22.9504 4.39453C23.6829 3.66211 24.873 3.66211 25.6055 4.39453C26.3379 5.12695 26.3379 6.31645 25.6055 7.04887L24.2816 8.37307Z" fill="#CFCFCF"/>
</svg>
