<svg width="26" height="22" viewBox="0 0 26 22" fill="none" xmlns="http://www.w3.org/2000/svg">
<path d="M26 2.5009C25.043 2.92589 24.0151 3.21188 22.9361 3.34087C24.0381 2.6809 24.883 1.63594 25.281 0.389985C24.2511 1.00096 23.1091 1.44494 21.8932 1.68494C20.9202 0.647975 19.5342 0 18.0003 0C15.0544 0 12.6665 2.38891 12.6665 5.3338C12.6665 5.75178 12.7145 6.15976 12.8045 6.54875C8.37168 6.32676 4.44183 4.20284 1.80993 0.974962C1.35195 1.76293 1.08896 2.6789 1.08896 3.65786C1.08896 5.50779 2.02992 7.14073 3.46087 8.09669C2.5869 8.06869 1.76393 7.8287 1.04496 7.42971C1.04496 7.45271 1.04496 7.47371 1.04496 7.49671C1.04496 10.0816 2.88289 12.2375 5.3238 12.7265C4.87681 12.8485 4.40483 12.9135 3.91785 12.9135C3.57486 12.9135 3.23988 12.8795 2.91489 12.8185C3.59386 14.9374 5.56379 16.4804 7.8977 16.5234C6.07277 17.9543 3.77286 18.8073 1.27295 18.8073C0.842968 18.8073 0.417984 18.7823 0 18.7323C2.36091 20.2452 5.1638 21.1282 8.17669 21.1282C17.9883 21.1282 23.3521 13.0005 23.3521 5.95177C23.3521 5.72078 23.3471 5.49079 23.3371 5.2618C24.3801 4.50883 25.285 3.56986 26 2.5009Z" fill="#323546"/>
</svg>
