<svg width="20" height="20" viewBox="0 0 20 20" fill="none" xmlns="http://www.w3.org/2000/svg">
<path d="M15 3.75C14.3086 3.75 13.75 4.30859 13.75 5C13.75 5.69141 14.3086 6.25 15 6.25C15.6914 6.25 16.25 5.69141 16.25 5C16.25 4.30859 15.6914 3.75 15 3.75Z" fill="white"/>
<path fill-rule="evenodd" clip-rule="evenodd" d="M5 9.99996C5.17188 16.5507 14.8633 16.5859 15 9.99996C14.7539 3.26169 5.24609 3.44919 5 9.99996ZM12.5 9.99996C12.5 13.3671 7.5 13.4414 7.5 9.99996C7.5 6.78122 12.5 6.63278 12.5 9.99996Z" fill="white"/>
<path fill-rule="evenodd" clip-rule="evenodd" d="M13.75 0H6.25C2.8125 0 0 2.8125 0 6.25V13.75C0 17.1875 2.8125 20 6.25 20H13.75C17.1875 20 20 17.1875 20 13.75V6.25C20 2.8125 17.1875 0 13.75 0ZM13.75 2.5C15.8164 2.5 17.5 4.18359 17.5 6.25V13.75C17.5 15.8164 15.8164 17.5 13.75 17.5H6.25C4.18359 17.5 2.5 15.8164 2.5 13.75V6.25C2.5 4.18359 4.18359 2.5 6.25 2.5H13.75Z" fill="white"/>
</svg>
