<svg width="20" height="16" viewBox="0 0 20 16" fill="none" xmlns="http://www.w3.org/2000/svg">
<path d="M19.5333 2.087C18.8315 2.39866 18.0777 2.6084 17.2864 2.703C18.0945 2.219 18.7142 1.45266 19.0061 0.53893C18.2507 0.986997 17.4133 1.3126 16.5215 1.4886C15.808 0.72813 14.7916 0.25293 13.6667 0.25293C11.5063 0.25293 9.75508 2.00486 9.75508 4.16453C9.75508 4.47106 9.79028 4.77026 9.85628 5.05553C6.60541 4.89273 3.72341 3.33513 1.79328 0.96793C1.45741 1.5458 1.26454 2.21753 1.26454 2.93546C1.26454 4.29213 1.95461 5.48966 3.00401 6.19073C2.36308 6.1702 1.75954 5.9942 1.23228 5.7016C1.23228 5.71846 1.23228 5.73386 1.23228 5.75073C1.23228 7.6464 2.58014 9.22746 4.37021 9.58606C4.04241 9.67553 3.69628 9.7232 3.33914 9.7232C3.08761 9.7232 2.84194 9.69826 2.60361 9.65353C3.10154 11.2075 4.54621 12.339 6.25781 12.3705C4.91948 13.4199 3.23281 14.0455 1.39948 14.0455C1.08414 14.0455 0.772476 14.0271 0.465942 13.9905C2.19734 15.1 4.25288 15.7475 6.46241 15.7475C13.6579 15.7475 17.5915 9.787 17.5915 4.61773C17.5915 4.44833 17.5878 4.27966 17.5805 4.11173C18.3453 3.55953 19.009 2.87093 19.5333 2.087Z" fill="#323546"/>
</svg>
