<svg width="20" height="16" viewBox="0 0 20 16" fill="none" xmlns="http://www.w3.org/2000/svg">
<path d="M19.5332 2.08712C18.8314 2.39879 18.0776 2.60852 17.2863 2.70312C18.0944 2.21912 18.7141 1.45279 19.006 0.539052C18.2506 0.987119 17.4132 1.31272 16.5214 1.48872C15.8079 0.728252 14.7915 0.253052 13.6666 0.253052C11.5062 0.253052 9.75496 2.00499 9.75496 4.16465C9.75496 4.47119 9.79015 4.77039 9.85615 5.05565C6.60529 4.89285 3.72329 3.33525 1.79315 0.968052C1.45729 1.54592 1.26442 2.21765 1.26442 2.93559C1.26442 4.29225 1.95449 5.48979 3.00389 6.19085C2.36295 6.17032 1.75942 5.99432 1.23215 5.70172C1.23215 5.71859 1.23215 5.73399 1.23215 5.75085C1.23215 7.64652 2.58002 9.22759 4.37009 9.58619C4.04229 9.67565 3.69615 9.72332 3.33902 9.72332C3.08749 9.72332 2.84182 9.69839 2.60349 9.65365C3.10142 11.2076 4.54609 12.3391 6.25769 12.3707C4.91935 13.4201 3.23269 14.0456 1.39935 14.0456C1.08402 14.0456 0.772354 14.0273 0.46582 13.9906C2.19722 15.1001 4.25275 15.7477 6.46229 15.7477C13.6578 15.7477 17.5914 9.78712 17.5914 4.61785C17.5914 4.44845 17.5877 4.27979 17.5804 4.11185C18.3452 3.55965 19.0089 2.87105 19.5332 2.08712Z" fill="white"/>
</svg>
