<svg width="16" height="14" viewBox="0 0 16 14" fill="none" xmlns="http://www.w3.org/2000/svg">
<path fill-rule="evenodd" clip-rule="evenodd" d="M9.13208 0.645416L15.8079 12.0638C16.0452 12.4684 16.0452 12.95 15.8079 13.3514C15.5706 13.756 15.1477 13.9968 14.677 13.9968H1.32349C0.851807 13.9968 0.428955 13.756 0.19165 13.3514C-0.0456543 12.9468 -0.0456543 12.4651 0.19165 12.0638L6.86841 0.645416C7.10571 0.240829 7.52856 0 8.00024 0C8.47192 0 8.89478 0.240829 9.13208 0.645416ZM7.99927 2.3633L2.38013 11.9771H13.6194L7.99927 2.3633ZM7.47974 8.95872H8.51978L8.9104 4.7523H7.08911L7.47974 8.95872ZM8.00024 11.5596C8.57544 11.5596 9.04028 11.1005 9.04028 10.5321C9.04028 9.96376 8.57544 9.50459 8.00024 9.50459C7.42407 9.50459 6.95923 9.96376 6.95923 10.5321C6.95923 11.1005 7.42407 11.5596 8.00024 11.5596Z" fill="#6B6C7E"/>
</svg>
